inDegrees=no
DataType=double
version=3
OpenSimVersion=4.4-2022-10-11-798caa840
endheader
time	elv_angle	shoulder_elv	shoulder_rot	elbow_flexion	pro_sup	deviation	flexion
1.201042571676803	0.8552113334772214	1.204277183876087	0.4188790204786391	0.9819182946385128	0	0	0
1.205212858384014	0.8552113334772214	1.204277183876087	0.4188790204786391	0.982600656205322	0	0	0
1.209383145091225	0.8552113334772214	1.204277183876087	0.4188790204786391	0.9832830177721312	0	0	0
1.213553431798436	0.8552113334772214	1.204277183876087	0.4188790204786391	0.9839653793389405	0	0	0
1.217723718505647	0.8552113334772214	1.204277183876087	0.4188790204786391	0.9846477409057498	0	0	0
1.221894005212858	0.8552113334772214	1.204277183876087	0.4188790204786391	0.985330102472559	0	0	0
1.226064291920069	0.8552113334772214	1.204277183876087	0.4188790204786391	0.9860124640393683	0	0	0
1.230234578627281	0.8552113334772214	1.204277183876087	0.4188790204786391	0.9866948256061774	0	0	0
1.234404865334492	0.8552113334772214	1.204277183876087	0.4188790204786391	0.9873771871729866	0	0	0
1.238575152041703	0.8552113334772214	1.204277183876087	0.4188790204786391	0.9880595487397961	0	0	0
1.242745438748914	0.8552113334772214	1.204277183876087	0.4188790204786391	0.9887419103066053	0	0	0
1.246915725456125	0.8552113334772214	1.204277183876087	0.4188790204786391	0.9894242718734145	0	0	0
1.251086012163336	0.8552113334772214	1.204277183876087	0.4188790204786391	0.9901066334402236	0	0	0
1.255256298870547	0.8552113334772214	1.204277183876087	0.4188790204786391	0.9907889950070329	0	0	0
1.259426585577758	0.8552113334772214	1.204277183876087	0.4188790204786391	0.9914713565738422	0	0	0
1.26359687228497	0.8552113334772214	1.204277183876087	0.4188790204786391	0.9921537181406515	0	0	0
1.267767158992181	0.8552113334772214	1.204277183876087	0.4188790204786391	0.9928360797074608	0	0	0
1.271937445699392	0.8552113334772214	1.204277183876087	0.4188790204786391	0.99351844127427	0	0	0
1.276107732406603	0.8552113334772214	1.204277183876087	0.4188790204786391	0.9942008028410791	0	0	0
1.280278019113814	0.8552113334772214	1.204277183876087	0.4188790204786391	0.9948831644078885	0	0	0
1.284448305821025	0.8552113334772214	1.204277183876087	0.4188790204786391	0.9955655259746977	0	0	0
1.288618592528236	0.8552113334772214	1.204277183876087	0.4188790204786391	0.9962478875415069	0	0	0
1.292788879235447	0.8552113334772214	1.204277183876087	0.4188790204786391	0.9969302491083162	0	0	0
1.296959165942659	0.8552113334772214	1.204277183876087	0.4188790204786391	0.9976126106751255	0	0	0
1.30112945264987	0.8552113334772214	1.204277183876087	0.4188790204786391	0.9982949722419348	0	0	0
1.305299739357081	0.8552113334772214	1.204277183876087	0.4188790204786391	0.998977333808744	0	0	0
1.309470026064292	0.8552113334772214	1.204277183876087	0.4188790204786391	0.9996596953755532	0	0	0
1.313640312771503	0.8552113334772214	1.204277183876087	0.4188790204786391	1.000342056942362	0	0	0
1.317810599478714	0.8552113334772214	1.204277183876087	0.4188790204786391	1.001024418509172	0	0	0
1.321980886185925	0.8552113334772214	1.204277183876087	0.4188790204786391	1.001706780075981	0	0	0
1.326151172893136	0.8552113334772214	1.204277183876087	0.4188790204786391	1.00238914164279	0	0	0
1.330321459600348	0.8552113334772214	1.204277183876087	0.4188790204786391	1.0030715032096	0	0	0
1.334491746307559	0.8552113334772214	1.204277183876087	0.4188790204786391	1.003753864776409	0	0	0
1.33866203301477	0.8552113334772214	1.204277183876087	0.4188790204786391	1.004436226343218	0	0	0
1.342832319721981	0.8552113334772214	1.204277183876087	0.4188790204786391	1.005118587910027	0	0	0
1.347002606429192	0.8552113334772214	1.204277183876087	0.4188790204786391	1.005800949476837	0	0	0
1.351172893136403	0.8552113334772214	1.204277183876087	0.4188790204786391	1.006483311043646	0	0	0
1.355343179843614	0.8552113334772214	1.204277183876087	0.4188790204786391	1.007165672610455	0	0	0
1.359513466550826	0.8552113334772214	1.204277183876087	0.4188790204786391	1.007848034177264	0	0	0
1.363683753258037	0.8552113334772214	1.204277183876087	0.4188790204786391	1.008530395744073	0	0	0
1.367854039965248	0.8552113334772214	1.204277183876087	0.4188790204786391	1.009212757310883	0	0	0
1.372024326672459	0.8552113334772214	1.204277183876087	0.4188790204786391	1.009895118877692	0	0	0
1.37619461337967	0.8552113334772214	1.204277183876087	0.4188790204786391	1.010577480444501	0	0	0
1.380364900086881	0.8552113334772214	1.204277183876087	0.4188790204786391	1.01125984201131	0	0	0
1.384535186794092	0.8552113334772214	1.204277183876087	0.4188790204786391	1.01194220357812	0	0	0
1.388705473501303	0.8552113334772214	1.204277183876087	0.4188790204786391	1.012624565144929	0	0	0
1.392875760208514	0.8552113334772214	1.204277183876087	0.4188790204786391	1.013306926711738	0	0	0
1.397046046915726	0.8552113334772214	1.204277183876087	0.4188790204786391	1.013989288278548	0	0	0
1.401216333622937	0.8552113334772214	1.204277183876087	0.4188790204786391	1.014671649845357	0	0	0
1.405386620330148	0.8552113334772214	1.204277183876087	0.4188790204786391	1.015354011412166	0	0	0
1.409556907037359	0.8552113334772214	1.204277183876087	0.4188790204786391	1.016036372978975	0	0	0
1.41372719374457	0.8552113334772214	1.204277183876087	0.4188790204786391	1.016718734545784	0	0	0
1.417897480451781	0.8552113334772214	1.204277183876087	0.4188790204786391	1.017401096112594	0	0	0
1.422067767158992	0.8552113334772214	1.204277183876087	0.4188790204786391	1.018083457679403	0	0	0
1.426238053866203	0.8552113334772214	1.204277183876087	0.4188790204786391	1.018765819246212	0	0	0
1.430408340573414	0.8552113334772214	1.204277183876087	0.4188790204786391	1.019448180813022	0	0	0
1.434578627280626	0.8552113334772214	1.204277183876087	0.4188790204786391	1.020130542379831	0	0	0
1.438748913987837	0.8552113334772214	1.204277183876087	0.4188790204786391	1.02081290394664	0	0	0
1.442919200695048	0.8552113334772214	1.204277183876087	0.4188790204786391	1.021495265513449	0	0	0
1.447089487402259	0.8552113334772214	1.204277183876087	0.4188790204786391	1.022177627080258	0	0	0
1.45125977410947	0.8552113334772214	1.204277183876087	0.4188790204786391	1.022859988647068	0	0	0
1.455430060816681	0.8552113334772214	1.204277183876087	0.4188790204786391	1.023542350213877	0	0	0
1.459600347523892	0.8552113334772214	1.204277183876087	0.4188790204786391	1.024224711780686	0	0	0
1.463770634231103	0.8552113334772214	1.204277183876087	0.4188790204786391	1.024907073347495	0	0	0
1.467940920938315	0.8552113334772214	1.204277183876087	0.4188790204786391	1.025589434914305	0	0	0
1.472111207645526	0.8552113334772214	1.204277183876087	0.4188790204786391	1.026271796481114	0	0	0
1.476281494352737	0.8552113334772214	1.204277183876087	0.4188790204786391	1.026954158047923	0	0	0
1.480451781059948	0.8552113334772214	1.204277183876087	0.4188790204786391	1.027636519614733	0	0	0
1.484622067767159	0.8552113334772214	1.204277183876087	0.4188790204786391	1.028318881181542	0	0	0
1.48879235447437	0.8552113334772214	1.204277183876087	0.4188790204786391	1.029001242748351	0	0	0
1.492962641181581	0.8552113334772214	1.204277183876087	0.4188790204786391	1.02968360431516	0	0	0
1.497132927888792	0.8552113334772214	1.204277183876087	0.4188790204786391	1.030365965881969	0	0	0
1.501303214596003	0.8552113334772214	1.204277183876087	0.4188790204786391	1.031048327448779	0	0	0
1.505473501303215	0.8552113334772214	1.204277183876087	0.4188790204786391	1.031730689015588	0	0	0
1.509643788010426	0.8552113334772214	1.204277183876087	0.4188790204786391	1.032413050582397	0	0	0
1.513814074717637	0.8552113334772214	1.204277183876087	0.4188790204786391	1.033095412149207	0	0	0
1.517984361424848	0.8552113334772214	1.204277183876087	0.4188790204786391	1.033777773716016	0	0	0
1.522154648132059	0.8552113334772214	1.204277183876087	0.4188790204786391	1.034460135282825	0	0	0
1.52632493483927	0.8552113334772214	1.204277183876087	0.4188790204786391	1.035142496849634	0	0	0
1.530495221546481	0.8552113334772214	1.204277183876087	0.4188790204786391	1.035824858416444	0	0	0
1.534665508253692	0.8552113334772214	1.204277183876087	0.4188790204786391	1.036507219983253	0	0	0
1.538835794960904	0.8552113334772214	1.204277183876087	0.4188790204786391	1.037189581550062	0	0	0
1.543006081668115	0.8552113334772214	1.204277183876087	0.4188790204786391	1.037871943116871	0	0	0
1.547176368375326	0.8552113334772214	1.204277183876087	0.4188790204786391	1.03855430468368	0	0	0
1.551346655082537	0.8552113334772214	1.204277183876087	0.4188790204786391	1.03923666625049	0	0	0
1.555516941789748	0.8552113334772214	1.204277183876087	0.4188790204786391	1.039919027817299	0	0	0
1.559687228496959	0.8552113334772214	1.204277183876087	0.4188790204786391	1.040601389384108	0	0	0
1.56385751520417	0.8552113334772214	1.204277183876087	0.4188790204786391	1.041283750950918	0	0	0
1.568027801911381	0.8552113334772214	1.204277183876087	0.4188790204786391	1.041966112517727	0	0	0
1.572198088618593	0.8552113334772214	1.204277183876087	0.4188790204786391	1.042648474084536	0	0	0
1.576368375325804	0.8552113334772214	1.204277183876087	0.4188790204786391	1.043330835651345	0	0	0
